<?xml version="1.0" encoding="utf-8"?>
<!-- Generator: Adobe Illustrator 24.0.2, SVG Export Plug-In . SVG Version: 6.00 Build 0)  -->
<svg version="1.1" id="Capa_1" xmlns="http://www.w3.org/2000/svg" xmlns:xlink="http://www.w3.org/1999/xlink" x="0px" y="0px"
	 viewBox="0 0 173 200" style="enable-background:new 0 0 173 200;" xml:space="preserve">
<style type="text/css">
	.st0{fill:#999999;}
	.st1{fill:#1D1D1B;}
	.st2{fill:#FFD100;}
</style>
<g>
	<g>
		<polygon class="st0" points="86.51,199.73 170.17,112.05 86.51,24.38 2.83,112.05 		"/>
		<g>
			<polygon class="st0" points="75.28,12.56 86.55,24.33 97.76,12.61 111.62,27.12 86.51,53.41 61.35,27.12 			"/>
			<polygon class="st0" points="139.6,56.32 86.47,111.85 33.41,56.38 47.39,41.74 86.53,82.68 125.67,41.74 			"/>
			<polygon class="st0" points="153.54,70.94 167.54,85.56 86.51,170.31 5.47,85.56 19.39,71.01 86.44,141.12 			"/>
		</g>
	</g>
	<polygon class="st1" points="86.51,187.45 170.17,99.77 86.51,12.08 2.83,99.77 	"/>
	<polygon class="st2" points="75.28,0.27 86.55,12.06 97.76,0.33 111.62,14.84 86.51,41.15 61.35,14.84 	"/>
	<polygon class="st2" points="139.6,44.04 86.47,99.57 33.41,44.09 47.39,29.47 86.53,70.37 125.67,29.47 	"/>
	<polygon class="st2" points="153.54,58.64 167.54,73.27 86.51,158.02 5.47,73.27 19.39,58.71 86.44,128.83 	"/>
</g>
</svg>
