<?xml version="1.0" encoding="utf-8"?>
<!-- Generator: Adobe Illustrator 22.0.1, SVG Export Plug-In . SVG Version: 6.00 Build 0)  -->
<svg version="1.1" id="Capa_1" xmlns="http://www.w3.org/2000/svg" xmlns:xlink="http://www.w3.org/1999/xlink" x="0px" y="0px"
	 viewBox="0 0 700.1 200" style="enable-background:new 0 0 700.1 200;" xml:space="preserve">
<style type="text/css">
	.st0{fill:#999999;}
	.st1{fill:#1D1E1C;}
	.st2{fill:#FFD100;}
	.st3{fill:#002F87;}
	.st4{fill:#FFFFFF;}
</style>
<g>
	<g>
		<polygon class="st0" points="349.3,107 396,60.3 349.3,13.5 302.5,60.3 		"/>
		<g>
			<polygon class="st0" points="343,7.2 349.3,13.5 355.6,7.2 363.3,15 349.3,29 335.2,15 			"/>
			<polygon class="st0" points="378.9,30.5 349.3,60.2 319.6,30.6 327.4,22.8 349.3,44.6 371.2,22.8 			"/>
			<polygon class="st0" points="386.7,38.3 394.6,46.1 349.3,91.3 304,46.1 311.8,38.4 349.2,75.8 			"/>
		</g>
	</g>
	<polygon class="st1" points="349.3,100.5 396,53.7 349.3,7 302.5,53.7 	"/>
	<polygon class="st2" points="343,0.7 349.3,7 355.6,0.7 363.3,8.4 349.3,22.5 335.2,8.4 	"/>
	<polygon class="st2" points="378.9,24 349.3,53.6 319.6,24 327.4,16.2 349.3,38 371.2,16.2 	"/>
	<polygon class="st2" points="386.7,31.8 394.6,39.6 349.3,84.8 304,39.6 311.8,31.8 349.2,69.2 	"/>
	<rect x="121.5" y="122.2" class="st3" width="456.2" height="51"/>
	<polygon class="st4" points="418.6,130.5 435.5,130.5 440.2,136.7 444.8,130.5 462.1,130.5 448.9,147.8 462.1,164.9 445,164.9 
		440.2,158.8 435.5,164.9 418.6,164.9 431.6,147.8 	"/>
	<polygon class="st4" points="331.2,130.5 331.2,164.8 345.9,164.8 345.9,149.6 353.5,164.8 360.6,149.6 360.6,164.8 375.7,164.8 
		375.7,130.5 359.9,130.5 353.5,146.6 347,130.5 	"/>
	<rect x="292" y="130.5" class="st4" width="16.2" height="34.4"/>
	<rect x="466" y="130.5" class="st4" width="16.2" height="34.4"/>
	<polygon class="st4" points="245.4,130.5 260.6,130.5 269,149.3 275.6,130.5 290.1,130.5 276.4,164.8 261,164.8 	"/>
	<path class="st4" d="M242.7,130.5v4.7h-14.8c-2.2-0.4-3.9,1-2,2.8c0,0,2.6,2.5,7,4.2c0,0,9.9,4.6,9.8,12.4c0,0,0,9.5-9.9,10.2
		h-22.6v-4.4h15.1c2.9,0.4,3.7-2.5,1.7-4c0,0-10.6-4.3-14.5-8.5c0,0-2.7-2.4-2.7-7.1c0-5,3.9-10.3,10-10.3H242.7z"/>
	<path class="st4" d="M168.6,130.5v4.7h-15.2c-1.4,0-2.2,1-2.2,2.6l0,20.5c0,0-0.3,2.1,2.7,2.1h14.7v4.4h-28.2c-2.6,0-4.7-2-4.7-4.8
		v-23c0-3.8,2.9-6.6,6.4-6.6H168.6z"/>
	<path class="st4" d="M520.6,130.5v4.8h-15.2c-1.4,0-2.2,1-2.2,2.6l0,20.6c0,0-0.3,2.1,2.7,2.1h14.7v4.4h-28.2c-2.6,0-4.7-2-4.7-4.8
		v-23.1c0-3.8,2.9-6.6,6.4-6.6H520.6z"/>
	<g>
		<g>
			<path class="st4" d="M556.3,130.6h-24.8c-3.8,0-6.9,3.1-6.9,6.9V158c0,3.8,3.1,6.9,6.9,6.9h24.8c3.8,0,6.9-3.1,6.9-6.9v-20.5
				C563.2,133.7,560.1,130.6,556.3,130.6z M547.3,159.3c0,0.6-0.5,1.2-1.2,1.2h-4.4c-0.6,0-1.1-0.5-1.1-1.2v-22.8
				c0-0.6,0.5-1.2,1.1-1.2h4.4c0.6,0,1.2,0.5,1.2,1.2V159.3z"/>
		</g>
	</g>
	<g>
		<g>
			<polygon class="st4" points="381.3,130.5 381.3,164.9 414.1,164.9 414.1,160.5 397.2,160.5 397.2,149.5 414.1,149.5 414.1,144.9 
				397.2,144.9 397.2,135.3 414.1,135.3 414.1,130.5 			"/>
		</g>
	</g>
	<g>
		<g>
			<polygon class="st4" points="173.2,130.5 173.2,164.8 206,164.8 206,160.5 189.1,160.5 189.1,149.5 206,149.5 206,144.9 
				189.1,144.9 189.1,135.3 206,135.3 206,130.5 			"/>
		</g>
	</g>
	<g>
		<path class="st1" d="M162,184.3c-0.5-1.9-1.6-3.2-3.3-3.2c-1,0-2,0.5-2.7,1.5c-0.7,1.1-1.2,2.9-1.2,4.7c0,1.8,0.5,3.7,1.2,4.7
			c0.7,1,1.7,1.5,2.7,1.5c1.8,0,3-1.4,3.6-4.3h1.6c-0.5,3.5-2.5,6.1-5.3,6c-1.6,0-2.9-0.9-3.5-1.6c-1.5-1.7-2-4.2-2-6.4
			c0-2.1,0.5-4.7,2-6.4c0.5-0.6,1.9-1.5,3.5-1.6c2.6,0,4.4,1.8,5.1,4.9H162z"/>
		<path class="st1" d="M166.9,190c-0.1,0.8,0,1.4,0.5,2.4c0.4,0.6,1,1.3,2,1.3c1.8,0,2.2-1.7,2.4-2.3h1.5c-0.1,0.7-0.3,1.4-0.8,2.2
			c-0.7,1.1-1.8,1.6-3,1.6c-1.2,0-2.4-0.6-3.2-1.7c-0.6-0.9-0.9-2.5-0.9-4.1c0-1.6,0.4-3.2,1.1-4.2c1-1.3,2.2-1.7,3.3-1.6
			c1.1,0.1,2.1,0.7,2.7,1.6c1,1.6,1,2.9,1,4.9H166.9z M172,188.5c0.1-1-0.4-2.2-0.7-2.5c-0.2-0.5-0.8-0.9-1.6-1
			c-0.7-0.1-1.5,0.2-2,1c-0.2,0.2-0.7,1.4-0.8,2.5H172z"/>
		<path class="st1" d="M176.9,183.9v1.4h0c0.3-0.5,0.6-1,1-1.2c0.4-0.4,1.1-0.5,1.8-0.5c0.7,0,1.3,0.2,1.5,0.3
			c0.4,0.3,1.2,0.8,1.4,2.4v8.5h-1.4v-7.6c0-1.3-0.8-2.1-1.8-2.1c-1.2,0-2.5,0.9-2.5,3.8v5.8h-1.4v-10.9H176.9z"/>
		<path class="st1" d="M186.7,183.9h1.4v1.6h-1.4v7.5c0,0.7,0.6,0.7,1.4,0.6v1.5c-0.6,0.1-1,0.2-1.6,0.1c-1-0.1-1.3-1.1-1.3-1.5
			v-8.2H184v-1.6h1.3v-2.9h1.4V183.9z"/>
		<path class="st1" d="M189.8,183.9h1.4v1.7h0c0.5-1.2,1.4-2,2-2h0.8v1.8c-0.5,0-1,0.1-1.4,0.2c-1,0.6-1.5,1.6-1.5,3.5v5.7h-1.4
			V183.9z"/>
		<path class="st1" d="M199,195.2c-1.6,0-4.1-1-4.1-5.8c0-4.9,2.4-5.8,4.1-5.8c1.6,0,4.1,1,4.1,5.8C203,194.2,200.6,195.2,199,195.2
			z M199,185.3c-1.9,0-2.6,2.3-2.6,4.1c0,1.8,0.7,4.1,2.6,4.1c1.9,0,2.6-2.3,2.6-4.1C201.6,187.6,200.9,185.3,199,185.3z"/>
		<path class="st1" d="M217.1,179.7v15.1h-1.2v-1.3c-0.3,0.4-0.7,0.9-1.2,1.3c-0.3,0.3-0.9,0.4-1.5,0.4c-0.6,0-1.3-0.1-1.8-0.4
			c-1.3-0.8-2-2.7-2.2-4.7c-0.2-2,0.3-4,1.1-5.1c0.9-1.1,1.8-1.4,2.6-1.4c0.8,0,1.6,0.3,2,0.7c0.4,0.3,0.7,0.7,0.8,1h0v-5.6H217.1z
			 M213.3,193.6c0.7-0.1,1.4-0.5,1.7-1.2c1.2-2.4,0.4-5.2-0.1-6c-0.4-0.6-1.1-1-1.8-1c-0.7,0-1.4,0.3-1.9,1.1
			c-0.8,1.3-1,4.4,0.1,6.2C211.9,193.4,212.6,193.7,213.3,193.6z"/>
		<path class="st1" d="M220.4,190c-0.1,0.8,0,1.4,0.5,2.4c0.4,0.6,1,1.3,2,1.3c1.8,0,2.2-1.7,2.4-2.3h1.5c-0.1,0.7-0.3,1.4-0.8,2.2
			c-0.7,1.1-1.8,1.6-3,1.6c-1.2,0-2.4-0.6-3.2-1.7c-0.6-0.9-0.9-2.5-0.9-4.1c0-1.6,0.4-3.2,1.1-4.2c1-1.3,2.2-1.7,3.3-1.6
			c1.1,0.1,2.1,0.7,2.7,1.6c1,1.6,1,2.9,1,4.9H220.4z M225.4,188.5c0-1-0.4-2.2-0.7-2.5c-0.2-0.5-0.8-0.9-1.6-1
			c-0.7-0.1-1.5,0.2-2,1c-0.2,0.2-0.7,1.4-0.8,2.5H225.4z"/>
		<path class="st1" d="M234,179.7h8.7v1.7h-7.1v4.8h6.8v1.7h-6.8v5.2h7.4v1.7h-9V179.7z"/>
		<path class="st1" d="M245.9,194.8h-1.6l3.2-5.6l-3-5.3h1.6l2.2,3.8l2.2-3.8h1.6l-3.1,5.3l3.1,5.6h-1.6l-2.3-4.1L245.9,194.8z"/>
		<path class="st1" d="M253.4,199.3v-15.4h1.3v1.4h0c0.3-0.5,0.6-0.8,1.2-1.3c0.4-0.3,0.9-0.4,1.5-0.4c0.6,0,1.3,0.1,1.8,0.5
			c1.3,0.8,2,2.7,2.2,4.7c0.2,1.9-0.3,4-1.2,5.1c-0.8,1.1-1.8,1.4-2.6,1.4c-0.8,0-1.6-0.4-2-0.7c-0.4-0.3-0.7-0.7-0.8-1h0v5.7H253.4
			z M257.2,185.2c-0.7,0.1-1.4,0.5-1.7,1.2c-1.2,2.4-0.4,5.2,0.1,6c0.4,0.6,1.1,1,1.8,1c0.7,0,1.4-0.3,1.9-1.1
			c0.8-1.3,1-4.4-0.1-6.2C258.7,185.5,257.9,185.1,257.2,185.2z"/>
		<path class="st1" d="M264.3,190c0,0.8,0,1.4,0.5,2.4c0.4,0.6,1,1.3,2,1.3c1.8,0,2.2-1.7,2.4-2.3h1.5c-0.1,0.7-0.3,1.4-0.8,2.2
			c-0.7,1.1-1.8,1.6-3,1.6c-1.2,0-2.4-0.6-3.2-1.7c-0.6-0.9-0.9-2.5-0.9-4.1c0-1.6,0.4-3.2,1.1-4.2c1-1.3,2.2-1.7,3.3-1.6
			c1.1,0.1,2.1,0.7,2.7,1.6c1,1.6,1,2.9,1,4.9H264.3z M269.3,188.5c0.1-1-0.4-2.2-0.6-2.5c-0.2-0.5-0.8-0.9-1.6-1
			c-0.7-0.1-1.5,0.2-2,1c-0.2,0.2-0.7,1.4-0.8,2.5H269.3z"/>
		<path class="st1" d="M272.8,183.9h1.4v1.7h0c0.5-1.2,1.4-2,2-2h0.8v1.8c-0.5,0-1,0.1-1.4,0.2c-1,0.6-1.5,1.6-1.5,3.5v5.7h-1.4
			V183.9z"/>
		<path class="st1" d="M279.9,181.8h-1.4v-2.2h1.4V181.8z M279.9,194.8h-1.4v-10.9h1.4V194.8z"/>
		<path class="st1" d="M282.4,183.9h1.4v1.4h0c0.2-0.4,0.5-1,0.9-1.3c0.4-0.3,1-0.4,1.7-0.4c0.5,0,1,0,1.5,0.4
			c0.3,0.3,0.6,0.5,0.9,1.2c0.4-0.6,0.7-1.1,1.2-1.3c0.4-0.2,0.9-0.3,1.3-0.3c0.6,0,1.2,0,1.7,0.3c0.6,0.4,1.2,1.4,1.2,2.4v8.5h-1.4
			V187c-0.2-1.4-0.8-1.8-1.7-1.8c-1.3,0-1.9,1.1-2,2.2v7.4h-1.4V187c-0.1-1.4-0.9-1.8-1.7-1.8c-1.1,0-2,1.1-2.1,2.6v7h-1.4V183.9z"
			/>
		<path class="st1" d="M297.7,190c0,0.8,0,1.4,0.5,2.4c0.4,0.6,1,1.3,2,1.3c1.8,0,2.2-1.7,2.4-2.3h1.5c-0.1,0.7-0.3,1.4-0.8,2.2
			c-0.7,1.1-1.8,1.6-3,1.6c-1.2,0-2.4-0.6-3.2-1.7c-0.6-0.9-0.9-2.5-0.9-4.1c0-1.6,0.4-3.2,1.1-4.2c1-1.3,2.2-1.7,3.3-1.6
			c1.1,0.1,2.1,0.7,2.7,1.6c1,1.6,1,2.9,1,4.9H297.7z M302.7,188.5c0.1-1-0.4-2.2-0.7-2.5c-0.2-0.5-0.8-0.9-1.6-1
			c-0.7-0.1-1.5,0.2-2,1c-0.2,0.2-0.7,1.4-0.8,2.5H302.7z"/>
		<path class="st1" d="M307.6,183.9v1.4h0c0.3-0.5,0.7-1,1-1.2c0.4-0.4,1.1-0.5,1.8-0.5c0.7,0,1.3,0.2,1.5,0.3
			c0.4,0.3,1.2,0.8,1.4,2.4v8.5h-1.4v-7.6c0-1.3-0.8-2.1-1.8-2.1c-1.2,0-2.5,0.9-2.5,3.8v5.8h-1.4v-10.9H307.6z"/>
		<path class="st1" d="M317.5,183.9h1.4v1.6h-1.4v7.5c0,0.7,0.6,0.7,1.4,0.6v1.5c-0.6,0.1-1,0.2-1.6,0.1c-1-0.1-1.3-1.1-1.3-1.5
			v-8.2h-1.2v-1.6h1.2v-2.9h1.4V183.9z"/>
		<path class="st1" d="M327.5,193.1c0,0.3,0.3,0.6,0.7,0.6c0.1,0,0.2,0,0.3-0.1v1.4c-0.3,0.1-0.6,0.2-1.1,0.2
			c-0.7,0-1.3-0.8-1.3-1.6c-0.7,0.6-1.7,1.6-2.9,1.6c-2,0-3.3-1.3-3.1-3.4c0.1-1.8,1-2.5,1.9-2.8c1.6-0.6,2.5-0.4,3.3-0.6
			c0.2-0.1,0.7-0.3,0.7-0.8v-1.3c-0.1-0.8-1.4-1.1-2.3-1.1c-1.7,0-1.8,1.5-1.8,2h-1.4l0-1c0.1-0.6,0.6-1.6,1.5-2.1
			c0.5-0.3,1-0.5,1.9-0.5c0.5,0,1,0,1.5,0.2c1.1,0.3,2.1,1,2.1,2.1V193.1z M326,189.4c-1.2,0.6-2.8,0.5-3.6,1
			c-0.3,0.1-0.8,0.7-0.9,1.5c0,1.3,0.8,1.8,1.6,1.9c2,0.1,2.9-1.8,2.9-2.1V189.4z"/>
		<path class="st1" d="M337,191c0,0.9-0.2,1.7-0.5,2.2c-0.7,1.4-2.1,2.1-3.4,2c-1.3-0.1-2.6-0.9-3.2-2.3c-0.4-0.9-0.6-2.2-0.6-3.7
			c0-1.4,0.4-3,1.3-4.2c0.7-1,1.7-1.4,2.7-1.5c1,0,1.9,0.3,2.5,1c0.7,0.5,1,1.7,1.1,3h-1.4c-0.2-1.1-0.4-1.7-1-2
			c-0.3-0.2-0.7-0.4-1.2-0.3c-0.5,0-1.2,0.3-1.8,1.1c-0.4,0.5-0.6,1.6-0.7,2.7c-0.1,1.1,0,2.2,0.3,2.9c0.6,1.3,1.4,1.7,2.2,1.7
			c0.8-0.1,1.5-0.6,1.7-1.2c0.2-0.5,0.4-1,0.4-1.4H337z"/>
		<path class="st1" d="M340,181.8h-1.4v-2.2h1.4V181.8z M340,194.8h-1.4v-10.9h1.4V194.8z"/>
		<path class="st1" d="M345.9,195.2c-1.7,0-4.1-1-4.1-5.8c0-4.9,2.4-5.8,4.1-5.8c1.6,0,4.1,1,4.1,5.8
			C350,194.2,347.6,195.2,345.9,195.2z M345.9,185.3c-1.9,0-2.6,2.3-2.6,4.1c0,1.8,0.7,4.1,2.6,4.1c1.9,0,2.6-2.3,2.6-4.1
			C348.5,187.6,347.8,185.3,345.9,185.3z M348.3,179.4l-2.5,3.1h-1l1.7-3.1H348.3z"/>
		<path class="st1" d="M353.4,183.9v1.4h0c0.3-0.5,0.6-1,1-1.2c0.4-0.4,1.1-0.5,1.8-0.5c0.6,0,1.3,0.2,1.5,0.3
			c0.4,0.3,1.2,0.8,1.4,2.4v8.5h-1.4v-7.6c0-1.3-0.8-2.1-1.8-2.1c-1.2,0-2.5,0.9-2.5,3.8v5.8H352v-10.9H353.4z"/>
		<path class="st1" d="M373.3,183.9l-4.1,13.4c-0.3,0.9-0.8,1.5-1.3,1.7c-0.5,0.2-0.8,0.3-1.2,0.3c-0.3,0-0.6-0.1-0.8-0.3v-1.6
			c0.4,0.2,0.7,0.2,1.1,0.2c0.3-0.1,0.6-0.4,0.8-1l0.5-1.7l-3-11.1h1.5l2.3,8.2l2.5-8.2H373.3z"/>
		<path class="st1" d="M387.1,184.1c0-0.9-0.2-1.7-1.1-2.4c-0.8-0.6-1.4-0.6-2.1-0.6c-2.9,0-3.4,3.2-2,4.2c0.5,0.3,1.1,0.6,1.9,0.7
			c1,0.3,2.1,0.7,3.1,1c1.1,0.5,2.1,1.9,2.1,3.4c0.1,3-2.2,5-4.9,4.9c-1.6-0.1-2.9-0.3-4-1.9c-0.8-1.2-0.9-2.2-0.9-3.4h1.5
			c0,0.9,0.3,3,2.4,3.4c0.4,0.1,1,0.1,1.7,0.1c0.7-0.1,1.3-0.3,1.8-0.7c0.8-0.8,1.4-2.6-0.1-3.8c-0.7-0.5-1.8-0.7-2.6-1
			c-1.7-0.5-0.9-0.2-2.6-0.9c-0.5-0.2-1.5-0.9-1.7-2.8c-0.2-2.4,1.2-4.9,4.2-4.9c1,0,2.3,0.2,3,0.8c1.7,1.3,1.8,3.2,1.8,3.9H387.1z"
			/>
		<path class="st1" d="M392.1,190c-0.1,0.8,0,1.4,0.5,2.4c0.4,0.6,1,1.3,2,1.3c1.8,0,2.2-1.7,2.4-2.3h1.5c-0.1,0.7-0.3,1.4-0.8,2.2
			c-0.7,1.1-1.8,1.6-3,1.6c-1.2,0-2.4-0.6-3.2-1.7c-0.6-0.9-0.9-2.5-0.9-4.1c0-1.6,0.4-3.2,1.1-4.2c1-1.3,2.2-1.7,3.3-1.6
			c1.1,0.1,2.1,0.7,2.7,1.6c1,1.6,1,2.9,1,4.9H392.1z M397.1,188.5c0.1-1-0.4-2.2-0.6-2.5c-0.2-0.5-0.8-0.9-1.6-1
			c-0.7-0.1-1.5,0.2-2,1c-0.2,0.2-0.7,1.4-0.8,2.5H397.1z"/>
		<path class="st1" d="M407.8,183.9v9c-0.1,2.6-0.3,5.2-2.1,6c-0.3,0.1-0.9,0.3-1.5,0.4c-0.6,0.1-1.4,0-2-0.3
			c-1.7-0.8-1.8-2.1-1.9-3h1.5c0.1,0.4,0,1,1,1.5c0.3,0.2,0.7,0.3,1.1,0.3c0.4,0,0.9-0.1,1.3-0.3c0.9-0.5,0.9-1,1.1-1.7
			c0.2-1,0.2-1.3,0.2-2.3c-0.5,0.7-1.6,1.8-2.9,1.8c-0.6-0.1-1.2-0.3-1.9-1c-1.1-0.8-1.6-2.5-1.6-4.3c-0.1-1.8,0.3-3.6,1-4.7
			c0.2-0.3,1.4-1.8,2.9-1.7c1,0,1.8,0.5,2.6,1.6h0v-1.3H407.8z M405.6,186.2c-0.2-0.3-0.9-0.7-1.6-0.7c-0.8,0-1.6,0.3-2.1,1.6
			c-0.2,0.5-0.4,1.4-0.4,2.5c0,1,0.1,2.1,0.6,2.9c0.4,0.7,1.1,1.1,1.7,1.2c0.7,0.1,1.3-0.2,1.8-0.8
			C406.8,191.2,406.6,187.5,405.6,186.2z"/>
		<path class="st1" d="M415.8,194.8v-1.2h0c-0.3,0.5-0.7,1-1,1.2c-0.5,0.3-1.2,0.5-1.8,0.5c-0.6,0-1.2-0.1-1.4-0.2
			c-0.7-0.4-1.3-1.3-1.4-2.4v-8.7h1.4v7.7c0,0.8,0.2,1.4,0.7,1.7c0.2,0.2,0.5,0.3,0.8,0.3c0.3,0,0.7,0,1-0.1
			c1.6-0.7,1.8-2.3,1.8-3.7v-5.9h1.4v10.9H415.8z"/>
		<path class="st1" d="M419.7,183.9h1.4v1.7h0c0.5-1.2,1.4-2,2-2h0.8v1.8c-0.5,0-1,0.1-1.4,0.2c-1,0.6-1.5,1.6-1.5,3.5v5.7h-1.4
			V183.9z"/>
		<path class="st1" d="M426.8,181.8h-1.4v-2.2h1.4V181.8z M426.8,194.8h-1.4v-10.9h1.4V194.8z"/>
		<path class="st1" d="M436.6,179.7v15.1h-1.3v-1.3c-0.3,0.4-0.7,0.9-1.2,1.3c-0.3,0.3-0.9,0.4-1.5,0.4c-0.6,0-1.3-0.1-1.8-0.4
			c-1.3-0.8-2-2.7-2.2-4.7c-0.2-2,0.3-4,1.2-5.1c0.9-1.1,1.8-1.4,2.6-1.4c0.8,0,1.6,0.3,2,0.7c0.4,0.3,0.7,0.7,0.8,1h0v-5.6H436.6z
			 M432.8,193.6c0.7-0.1,1.4-0.5,1.7-1.2c1.2-2.4,0.4-5.2-0.1-6c-0.4-0.6-1.1-1-1.8-1c-0.7,0-1.4,0.3-1.9,1.1
			c-0.8,1.3-1,4.4,0.1,6.2C431.3,193.4,432.1,193.7,432.8,193.6z"/>
		<path class="st1" d="M445.8,193.1c0,0.3,0.3,0.6,0.7,0.6c0.1,0,0.2,0,0.3-0.1v1.4c-0.3,0.1-0.6,0.2-1.1,0.2
			c-0.6,0-1.3-0.8-1.3-1.6c-0.7,0.6-1.7,1.6-2.9,1.6c-2,0-3.3-1.3-3.1-3.4c0.1-1.8,1-2.5,1.9-2.8c1.6-0.6,2.5-0.4,3.3-0.6
			c0.2-0.1,0.7-0.3,0.7-0.8v-1.3c-0.1-0.8-1.4-1.1-2.3-1.1c-1.7,0-1.8,1.5-1.8,2h-1.3l0.1-1c0.1-0.6,0.5-1.6,1.5-2.1
			c0.5-0.3,1-0.5,1.9-0.5c0.5,0,1,0,1.5,0.2c1.1,0.3,2.1,1,2.1,2.1V193.1z M444.3,189.4c-1.2,0.6-2.8,0.5-3.6,1
			c-0.3,0.1-0.8,0.7-0.9,1.5c0,1.3,0.8,1.8,1.6,1.9c2,0.1,2.9-1.8,2.9-2.1V189.4z"/>
		<path class="st1" d="M455.6,179.7v15.1h-1.3v-1.3c-0.3,0.4-0.7,0.9-1.2,1.3c-0.3,0.3-0.9,0.4-1.5,0.4c-0.6,0-1.3-0.1-1.8-0.4
			c-1.3-0.8-2-2.7-2.2-4.7c-0.2-2,0.3-4,1.2-5.1c0.9-1.1,1.8-1.4,2.6-1.4c0.8,0,1.6,0.3,2,0.7c0.4,0.3,0.7,0.7,0.8,1h0v-5.6H455.6z
			 M451.9,193.6c0.7-0.1,1.4-0.5,1.7-1.2c1.2-2.4,0.4-5.2-0.1-6c-0.4-0.6-1.1-1-1.8-1c-0.7,0-1.4,0.3-1.9,1.1
			c-0.7,1.3-1,4.4,0.1,6.2C450.4,193.4,451.2,193.7,451.9,193.6z"/>
		<path class="st1" d="M470.8,179.7h1.7l-4.4,15.1h-1.7l-4.4-15.1h1.7l3.6,12.8L470.8,179.7z"/>
		<path class="st1" d="M475.2,181.8h-1.4v-2.2h1.4V181.8z M475.2,194.8h-1.4v-10.9h1.4V194.8z"/>
		<path class="st1" d="M484.6,193.1c0,0.3,0.3,0.6,0.7,0.6c0.1,0,0.2,0,0.3-0.1v1.4c-0.3,0.1-0.6,0.2-1.1,0.2
			c-0.6,0-1.3-0.8-1.3-1.6c-0.7,0.6-1.7,1.6-2.9,1.6c-2,0-3.3-1.3-3.1-3.4c0.1-1.8,1-2.5,1.9-2.8c1.6-0.6,2.5-0.4,3.3-0.6
			c0.2-0.1,0.7-0.3,0.7-0.8v-1.3c-0.1-0.8-1.4-1.1-2.3-1.1c-1.7,0-1.8,1.5-1.8,2h-1.3l0-1c0.1-0.6,0.6-1.6,1.5-2.1
			c0.5-0.3,1-0.5,1.9-0.5c0.5,0,1,0,1.5,0.2c1.1,0.3,2.1,1,2.1,2.1V193.1z M483.1,189.4c-1.2,0.6-2.8,0.5-3.6,1
			c-0.3,0.1-0.8,0.7-0.9,1.5c0,1.3,0.8,1.8,1.6,1.9c2,0.1,2.9-1.8,2.9-2.1V189.4z"/>
		<path class="st1" d="M487.1,179.7h1.4v15.1h-1.4V179.7z"/>
		<path class="st1" d="M500.9,194.8l-3.4-12.3v12.3h-1.7v-15.1h2.3l3.6,12.9l3.6-12.9h2.3v15.1H506v-12.3l-3.4,12.3H500.9z"/>
		<path class="st1" d="M511.1,190c-0.1,0.8,0,1.4,0.5,2.4c0.4,0.6,1,1.3,2,1.3c1.8,0,2.2-1.7,2.4-2.3h1.5c-0.1,0.7-0.3,1.4-0.8,2.2
			c-0.7,1.1-1.8,1.6-3,1.6c-1.2,0-2.4-0.6-3.2-1.7c-0.6-0.9-0.9-2.5-0.9-4.1c0-1.6,0.4-3.2,1.1-4.2c1-1.3,2.2-1.7,3.3-1.6
			c1.1,0.1,2.1,0.7,2.7,1.6c1,1.6,1,2.9,1,4.9H511.1z M516.1,188.5c0.1-1-0.4-2.2-0.6-2.5c-0.2-0.5-0.8-0.9-1.6-1
			c-0.7-0.1-1.5,0.2-2,1c-0.2,0.2-0.7,1.4-0.8,2.5H516.1z M516,179.4l-2.5,3.1h-1l1.7-3.1H516z"/>
		<path class="st1" d="M520.3,194.8h-1.6l3.2-5.6l-3-5.3h1.6l2.2,3.8l2.2-3.8h1.6l-3.1,5.3l3.1,5.6h-1.6l-2.3-4.1L520.3,194.8z"/>
		<path class="st1" d="M529.6,181.8h-1.4v-2.2h1.4V181.8z M529.6,194.8h-1.4v-10.9h1.4V194.8z"/>
		<path class="st1" d="M539,191c0,0.9-0.2,1.7-0.5,2.2c-0.7,1.4-2.1,2.1-3.4,2c-1.3-0.1-2.6-0.9-3.2-2.3c-0.4-0.9-0.7-2.2-0.6-3.7
			c0-1.4,0.4-3,1.3-4.2c0.7-1,1.7-1.4,2.7-1.5c1,0,1.9,0.3,2.5,1c0.7,0.5,1,1.7,1.1,3h-1.4c-0.2-1.1-0.4-1.7-1-2
			c-0.3-0.2-0.7-0.4-1.2-0.3c-0.5,0-1.2,0.3-1.8,1.1c-0.4,0.5-0.6,1.6-0.7,2.7c-0.1,1.1,0,2.2,0.3,2.9c0.6,1.3,1.4,1.7,2.2,1.7
			c0.8-0.1,1.5-0.6,1.7-1.2c0.2-0.5,0.4-1,0.4-1.4H539z"/>
		<path class="st1" d="M544.1,195.2c-1.6,0-4.1-1-4.1-5.8c0-4.9,2.4-5.8,4.1-5.8c1.6,0,4.1,1,4.1,5.8
			C548.1,194.2,545.7,195.2,544.1,195.2z M544.1,185.3c-1.9,0-2.6,2.3-2.6,4.1c0,1.8,0.7,4.1,2.6,4.1c1.9,0,2.6-2.3,2.6-4.1
			C546.7,187.6,546,185.3,544.1,185.3z"/>
	</g>
</g>
</svg>
